<?xml version="1.0" encoding="utf-8"?>
<!-- Generator: Adobe Illustrator 23.0.1, SVG Export Plug-In . SVG Version: 6.00 Build 0)  -->
<svg version="1.1" id="圖層_1" xmlns="http://www.w3.org/2000/svg" xmlns:xlink="http://www.w3.org/1999/xlink" x="0px" y="0px"
	 viewBox="0 0 82.6 232.1" style="enable-background:new 0 0 82.6 232.1;" xml:space="preserve">
<style type="text/css">
	.st0{fill:#FFFFFF;}
</style>
<path class="st0" d="M53.5,0C60.6,5.7,63,13.8,64,22.1c1.1,9.4,1.7,19,0.6,28.4c-1.1,9.6-4.5,19-10.3,27.1c-2.6,3.7-5.8,7-8.5,10.6
	c-0.8,1.1-1.4,2.9-1.2,4.3c0.8,5.4,1.9,10.8,3.2,16.2c0.3,1.1,2,1.9,3.1,2.8c0.1,0.1,0.5,0.1,0.7,0c7.6-1.2,14,1.3,19.7,6.4
	c5.8,5.3,9,11.8,10.6,19.4c3.3,15.5-5.6,31.9-18.2,36.8c-2.6,7.8,0.8,15.2,1.5,22.7c0.4,4.8,1.3,9.8,0.8,14.5
	c-1.6,15.2-12.1,23.1-27.1,20.4c-4.5-0.8-9.2-2.7-13.1-5.2c-10.3-6.6-11.1-19.6-2.1-27.4c4.4-3.8,9.9-4.6,14.6-2.2
	c4.4,2.2,6.9,6.8,6.5,12.1c-0.4,5.1-3.8,8.8-9.6,10.6c-0.7,0.2-1.4,0.5-2.3,0.7c0.6,3.8,3.4,5.2,6.5,5.9
	c10.1,2.2,20.8-5.6,20.5-15.9c-0.3-9.9-2.2-19.8-3.6-29.7c-0.1-0.8-2.1-1.9-3.3-2c-6.1-0.2-12.2,0.1-18.4-0.2
	c-3.7-0.1-7.9,0.5-9.8-4.2c-0.2-0.6-1.2-0.8-1.9-1.2c-8.5-4.7-14.2-12-18.2-20.7C-0.5,140.8-1.4,129,2,116.9
	c3.5-12.6,11.7-22.2,20.3-31.5c3.9-4.2,7.9-8.3,11.7-12.7c0.8-0.9,1.1-2.7,0.9-4.1c-1.1-8.2-2.6-16.3-3.5-24.4
	C30,31.8,33,20.1,39.2,9.4c2.1-3.6,5.6-6.3,8.4-9.4C49.5,0,51.5,0,53.5,0z M39.4,94.8c-0.7,0.5-1.3,0.8-1.7,1.2
	c-6.2,6.2-13,11.5-18.6,18.5c-9.2,11.7-10.1,24.3-5.9,37.4c5.1,16,22.3,22.7,38.1,20.2c3.1-0.5,3.3-2.3,2.8-4.9
	c-1.6-8.3-3-16.7-4.7-25c-0.9-4.5-2-8.9-3-13.3c-6.3,2.1-10.6,7.3-11,12.6c-0.5,6.8,1.4,12.8,6.4,17.7c1,0.9,1.7,2.1,2.6,3.2
	c-0.2,0.3-0.4,0.6-0.6,0.9c-1-0.2-2.1-0.3-2.9-0.8c-3.4-2.3-7.2-4.3-9.8-7.3c-2.7-3.2-5.5-7.3-6-11.3c-1.8-13,4.4-22.5,15.5-28.6
	c2.9-1.6,3.4-3.6,2.8-6C42.4,104.5,40.8,99.9,39.4,94.8z M39.9,66.3c0.9-0.9,1.5-1.3,2-1.8c5-5.7,10.1-11.1,13.2-18.2
	c3-6.7,4.8-13.4,2.8-20.7c-1.3-4.9-4.8-5.9-8.8-2.8c-0.9,0.7-1.7,1.5-2.4,2.3C40.6,32.7,39,42,37.6,51.1
	C36.8,55.7,39,60.8,39.9,66.3z M53.1,127.1c-0.4,0.4-0.7,0.9-1.1,1.3c2.7,13.2,5.4,26.5,8.1,39.9c7.8-3.6,13.8-16.5,10.9-25.4
	c-1.4-4.3-5.3-8.2-8.8-11.4C59.8,129.3,56.2,128.5,53.1,127.1z"/>
</svg>
